<?xml version="1.0" encoding="utf-8" standalone="no"?>
<!DOCTYPE svg PUBLIC "-//W3C//DTD SVG 1.1//EN"
  "http://www.w3.org/Graphics/SVG/1.1/DTD/svg11.dtd">
<svg xmlns:xlink="http://www.w3.org/1999/xlink" width="360pt" height="360pt" viewBox="0 0 360 360" xmlns="http://www.w3.org/2000/svg" version="1.1">
 <metadata>
  <rdf:RDF xmlns:dc="http://purl.org/dc/elements/1.1/" xmlns:cc="http://creativecommons.org/ns#" xmlns:rdf="http://www.w3.org/1999/02/22-rdf-syntax-ns#">
   <cc:Work>
    <dc:type rdf:resource="http://purl.org/dc/dcmitype/StillImage"/>
    <dc:date>2024-03-26T14:38:44.721803</dc:date>
    <dc:format>image/svg+xml</dc:format>
    <dc:creator>
     <cc:Agent>
      <dc:title>Matplotlib v3.7.2, https://matplotlib.org/</dc:title>
     </cc:Agent>
    </dc:creator>
   </cc:Work>
  </rdf:RDF>
 </metadata>
 <defs>
  <style type="text/css">*{stroke-linejoin: round; stroke-linecap: butt}</style>
 </defs>
 <g id="figure_1">
  <g id="patch_1">
   <path d="M 0 360 
L 360 360 
L 360 0 
L 0 0 
z
" style="fill: #ffffff"/>
  </g>
  <g id="axes_1">
   <g id="patch_2">
    <path d="M 45 320.4 
L 324 320.4 
L 324 43.2 
L 45 43.2 
z
" style="fill: #ffffff"/>
   </g>
   <g id="PathCollection_1">
    <path d="M 213.498073 154.557456 
C 213.917396 154.557456 214.319601 154.390858 214.616107 154.094352 
C 214.912613 153.797846 215.079212 153.395641 215.079212 152.976318 
C 215.079212 152.556995 214.912613 152.15479 214.616107 151.858284 
C 214.319601 151.561778 213.917396 151.395179 213.498073 151.395179 
C 213.07875 151.395179 212.676545 151.561778 212.380039 151.858284 
C 212.083533 152.15479 211.916934 152.556995 211.916934 152.976318 
C 211.916934 153.395641 212.083533 153.797846 212.380039 154.094352 
C 212.676545 154.390858 213.07875 154.557456 213.498073 154.557456 
z
" clip-path="url(#pca38509e88)" style="fill: #440154; stroke: #000000"/>
    <path d="M 214.81433 152.955856 
C 215.233653 152.955856 215.635858 152.789257 215.932364 152.492751 
C 216.22887 152.196245 216.395469 151.79404 216.395469 151.374717 
C 216.395469 150.955394 216.22887 150.553189 215.932364 150.256683 
C 215.635858 149.960177 215.233653 149.793578 214.81433 149.793578 
C 214.395007 149.793578 213.992802 149.960177 213.696296 150.256683 
C 213.39979 150.553189 213.233191 150.955394 213.233191 151.374717 
C 213.233191 151.79404 213.39979 152.196245 213.696296 152.492751 
C 213.992802 152.789257 214.395007 152.955856 214.81433 152.955856 
z
" clip-path="url(#pca38509e88)" style="fill: #440154; stroke: #000000"/>
    <path d="M 77.676593 114.311481 
C 79.002609 114.311481 80.274493 113.78465 81.212127 112.847015 
C 82.149762 111.909381 82.676593 110.637497 82.676593 109.311481 
C 82.676593 107.985466 82.149762 106.713582 81.212127 105.775947 
C 80.274493 104.838313 79.002609 104.311481 77.676593 104.311481 
C 76.350578 104.311481 75.078694 104.838313 74.141059 105.775947 
C 73.203425 106.713582 72.676593 107.985466 72.676593 109.311481 
C 72.676593 110.637497 73.203425 111.909381 74.141059 112.847015 
C 75.078694 113.78465 76.350578 114.311481 77.676593 114.311481 
z
" clip-path="url(#pca38509e88)" style="fill: #fde725; stroke: #000000"/>
    <path d="M 78.61313 112.456001 
C 79.939146 112.456001 81.21103 111.92917 82.148664 110.991535 
C 83.086299 110.053901 83.61313 108.782017 83.61313 107.456001 
C 83.61313 106.129986 83.086299 104.858102 82.148664 103.920467 
C 81.21103 102.982833 79.939146 102.456001 78.61313 102.456001 
C 77.287115 102.456001 76.015231 102.982833 75.077596 103.920467 
C 74.139962 104.858102 73.61313 106.129986 73.61313 107.456001 
C 73.61313 108.782017 74.139962 110.053901 75.077596 110.991535 
C 76.015231 111.92917 77.287115 112.456001 78.61313 112.456001 
z
" clip-path="url(#pca38509e88)" style="fill: #fde725; stroke: #000000"/>
    <path d="M 78.713643 111.420484 
C 80.039658 111.420484 81.311542 110.893653 82.249177 109.956018 
C 83.186811 109.018384 83.713643 107.7465 83.713643 106.420484 
C 83.713643 105.094469 83.186811 103.822585 82.249177 102.88495 
C 81.311542 101.947316 80.039658 101.420484 78.713643 101.420484 
C 77.387627 101.420484 76.115743 101.947316 75.178109 102.88495 
C 74.240474 103.822585 73.713643 105.094469 73.713643 106.420484 
C 73.713643 107.7465 74.240474 109.018384 75.178109 109.956018 
C 76.115743 110.893653 77.387627 111.420484 78.713643 111.420484 
z
" clip-path="url(#pca38509e88)" style="fill: #fde725; stroke: #000000"/>
    <path d="M 78.032022 111.325706 
C 79.358037 111.325706 80.629921 110.798874 81.567556 109.86124 
C 82.50519 108.923605 83.032022 107.651721 83.032022 106.325706 
C 83.032022 104.99969 82.50519 103.727806 81.567556 102.790172 
C 80.629921 101.852537 79.358037 101.325706 78.032022 101.325706 
C 76.706006 101.325706 75.434123 101.852537 74.496488 102.790172 
C 73.558853 103.727806 73.032022 104.99969 73.032022 106.325706 
C 73.032022 107.651721 73.558853 108.923605 74.496488 109.86124 
C 75.434123 110.798874 76.706006 111.325706 78.032022 111.325706 
z
" clip-path="url(#pca38509e88)" style="fill: #fde725; stroke: #000000"/>
   </g>
   <g id="PathCollection_2">
    <path d="M 296.559234 71.840755 
C 296.978557 71.840755 297.380762 71.674156 297.677268 71.37765 
C 297.973774 71.081144 298.140372 70.678939 298.140372 70.259616 
C 298.140372 69.840293 297.973774 69.438088 297.677268 69.141582 
C 297.380762 68.845076 296.978557 68.678478 296.559234 68.678478 
C 296.139911 68.678478 295.737706 68.845076 295.4412 69.141582 
C 295.144694 69.438088 294.978095 69.840293 294.978095 70.259616 
C 294.978095 70.678939 295.144694 71.081144 295.4412 71.37765 
C 295.737706 71.674156 296.139911 71.840755 296.559234 71.840755 
z
" clip-path="url(#pca38509e88)" style="fill: #440154; stroke: #000000"/>
    <path d="M 68.87786 297.926593 
C 69.297183 297.926593 69.699388 297.759995 69.995894 297.463489 
C 70.2924 297.166982 70.458998 296.764777 70.458998 296.345455 
C 70.458998 295.926132 70.2924 295.523927 69.995894 295.227421 
C 69.699388 294.930914 69.297183 294.764316 68.87786 294.764316 
C 68.458537 294.764316 68.056332 294.930914 67.759826 295.227421 
C 67.46332 295.523927 67.296721 295.926132 67.296721 296.345455 
C 67.296721 296.764777 67.46332 297.166982 67.759826 297.463489 
C 68.056332 297.759995 68.458537 297.926593 68.87786 297.926593 
z
" clip-path="url(#pca38509e88)" style="fill: #440154; stroke: #000000"/>
    <path d="M 288.037626 80.044614 
C 288.456949 80.044614 288.859154 79.878016 289.15566 79.58151 
C 289.452166 79.285004 289.618765 78.882799 289.618765 78.463476 
C 289.618765 78.044153 289.452166 77.641948 289.15566 77.345442 
C 288.859154 77.048936 288.456949 76.882337 288.037626 76.882337 
C 287.618303 76.882337 287.216098 77.048936 286.919592 77.345442 
C 286.623086 77.641948 286.456487 78.044153 286.456487 78.463476 
C 286.456487 78.882799 286.623086 79.285004 286.919592 79.58151 
C 287.216098 79.878016 287.618303 80.044614 288.037626 80.044614 
z
" clip-path="url(#pca38509e88)" style="fill: #440154; stroke: #000000"/>
    <path d="M 69.448995 297.115911 
C 69.868318 297.115911 70.270523 296.949312 70.567029 296.652806 
C 70.863535 296.3563 71.030134 295.954095 71.030134 295.534772 
C 71.030134 295.115449 70.863535 294.713244 70.567029 294.416738 
C 70.270523 294.120232 69.868318 293.953633 69.448995 293.953633 
C 69.029673 293.953633 68.627468 294.120232 68.330961 294.416738 
C 68.034455 294.713244 67.867857 295.115449 67.867857 295.534772 
C 67.867857 295.954095 68.034455 296.3563 68.330961 296.652806 
C 68.627468 296.949312 69.029673 297.115911 69.448995 297.115911 
z
" clip-path="url(#pca38509e88)" style="fill: #440154; stroke: #000000"/>
    <path d="M 294.504768 72.938879 
C 294.924091 72.938879 295.326296 72.77228 295.622802 72.475774 
C 295.919308 72.179268 296.085907 71.777063 296.085907 71.35774 
C 296.085907 70.938417 295.919308 70.536212 295.622802 70.239706 
C 295.326296 69.9432 294.924091 69.776601 294.504768 69.776601 
C 294.085445 69.776601 293.68324 69.9432 293.386734 70.239706 
C 293.090228 70.536212 292.923629 70.938417 292.923629 71.35774 
C 292.923629 71.777063 293.090228 72.179268 293.386734 72.475774 
C 293.68324 72.77228 294.085445 72.938879 294.504768 72.938879 
z
" clip-path="url(#pca38509e88)" style="fill: #440154; stroke: #000000"/>
    <path d="M 296.701448 70.045757 
C 297.120771 70.045757 297.522976 69.879158 297.819482 69.582652 
C 298.115988 69.286146 298.282586 68.883941 298.282586 68.464618 
C 298.282586 68.045295 298.115988 67.64309 297.819482 67.346584 
C 297.522976 67.050078 297.120771 66.883479 296.701448 66.883479 
C 296.282125 66.883479 295.87992 67.050078 295.583414 67.346584 
C 295.286908 67.64309 295.120309 68.045295 295.120309 68.464618 
C 295.120309 68.883941 295.286908 69.286146 295.583414 69.582652 
C 295.87992 69.879158 296.282125 70.045757 296.701448 70.045757 
z
" clip-path="url(#pca38509e88)" style="fill: #440154; stroke: #000000"/>
    <path d="M 69.275303 292.294789 
C 69.694626 292.294789 70.096831 292.12819 70.393337 291.831684 
C 70.689843 291.535178 70.856442 291.132973 70.856442 290.71365 
C 70.856442 290.294327 70.689843 289.892122 70.393337 289.595616 
C 70.096831 289.29911 69.694626 289.132511 69.275303 289.132511 
C 68.85598 289.132511 68.453775 289.29911 68.157269 289.595616 
C 67.860763 289.892122 67.694164 290.294327 67.694164 290.71365 
C 67.694164 291.132973 67.860763 291.535178 68.157269 291.831684 
C 68.453775 292.12819 68.85598 292.294789 69.275303 292.294789 
z
" clip-path="url(#pca38509e88)" style="fill: #440154; stroke: #000000"/>
    <path d="M 94.57534 75.581446 
C 95.901355 75.581446 97.173239 75.054614 98.110874 74.11698 
C 99.048508 73.179345 99.57534 71.907461 99.57534 70.581446 
C 99.57534 69.25543 99.048508 67.983547 98.110874 67.045912 
C 97.173239 66.108277 95.901355 65.581446 94.57534 65.581446 
C 93.249324 65.581446 91.977441 66.108277 91.039806 67.045912 
C 90.102172 67.983547 89.57534 69.25543 89.57534 70.581446 
C 89.57534 71.907461 90.102172 73.179345 91.039806 74.11698 
C 91.977441 75.054614 93.249324 75.581446 94.57534 75.581446 
z
" clip-path="url(#pca38509e88)" style="fill: #fde725; stroke: #000000"/>
    <path d="M 95.370874 73.701251 
C 96.696889 73.701251 97.968773 73.17442 98.906408 72.236785 
C 99.844042 71.299151 100.370874 70.027267 100.370874 68.701251 
C 100.370874 67.375236 99.844042 66.103352 98.906408 65.165717 
C 97.968773 64.228083 96.696889 63.701251 95.370874 63.701251 
C 94.044858 63.701251 92.772975 64.228083 91.83534 65.165717 
C 90.897705 66.103352 90.370874 67.375236 90.370874 68.701251 
C 90.370874 70.027267 90.897705 71.299151 91.83534 72.236785 
C 92.772975 73.17442 94.044858 73.701251 95.370874 73.701251 
z
" clip-path="url(#pca38509e88)" style="fill: #fde725; stroke: #000000"/>
    <path d="M 94.581191 73.272246 
C 95.907206 73.272246 97.17909 72.745415 98.116724 71.80778 
C 99.054359 70.870146 99.581191 69.598262 99.581191 68.272246 
C 99.581191 66.946231 99.054359 65.674347 98.116724 64.736712 
C 97.17909 63.799078 95.907206 63.272246 94.581191 63.272246 
C 93.255175 63.272246 91.983291 63.799078 91.045657 64.736712 
C 90.108022 65.674347 89.581191 66.946231 89.581191 68.272246 
C 89.581191 69.598262 90.108022 70.870146 91.045657 71.80778 
C 91.983291 72.745415 93.255175 73.272246 94.581191 73.272246 
z
" clip-path="url(#pca38509e88)" style="fill: #fde725; stroke: #000000"/>
    <path d="M 94.92732 72.254545 
C 96.253336 72.254545 97.52522 71.727714 98.462854 70.790079 
C 99.400489 69.852445 99.92732 68.580561 99.92732 67.254545 
C 99.92732 65.92853 99.400489 64.656646 98.462854 63.719012 
C 97.52522 62.781377 96.253336 62.254545 94.92732 62.254545 
C 93.601305 62.254545 92.329421 62.781377 91.391786 63.719012 
C 90.454152 64.656646 89.92732 65.92853 89.92732 67.254545 
C 89.92732 68.580561 90.454152 69.852445 91.391786 70.790079 
C 92.329421 71.727714 93.601305 72.254545 94.92732 72.254545 
z
" clip-path="url(#pca38509e88)" style="fill: #fde725; stroke: #000000"/>
   </g>
   <g id="matplotlib.axis_1">
    <g id="xtick_1">
     <g id="line2d_1">
      <defs>
       <path id="m90b4a952a4" d="M 0 0 
L 0 3.5 
" style="stroke: #000000; stroke-width: 0.8"/>
      </defs>
      <g>
       <use xlink:href="#m90b4a952a4" x="51.162289" y="320.4" style="stroke: #000000; stroke-width: 0.8"/>
      </g>
     </g>
     <g id="text_1">
      <!-- 0 -->
      <g transform="translate(47.981039 334.998438) scale(0.1 -0.1)">
       <defs>
        <path id="DejaVuSans-30" d="M 2034 4250 
Q 1547 4250 1301 3770 
Q 1056 3291 1056 2328 
Q 1056 1369 1301 889 
Q 1547 409 2034 409 
Q 2525 409 2770 889 
Q 3016 1369 3016 2328 
Q 3016 3291 2770 3770 
Q 2525 4250 2034 4250 
z
M 2034 4750 
Q 2819 4750 3233 4129 
Q 3647 3509 3647 2328 
Q 3647 1150 3233 529 
Q 2819 -91 2034 -91 
Q 1250 -91 836 529 
Q 422 1150 422 2328 
Q 422 3509 836 4129 
Q 1250 4750 2034 4750 
z
" transform="scale(0.015625)"/>
       </defs>
       <use xlink:href="#DejaVuSans-30"/>
      </g>
     </g>
    </g>
    <g id="xtick_2">
     <g id="line2d_2">
      <g>
       <use xlink:href="#m90b4a952a4" x="92.053074" y="320.4" style="stroke: #000000; stroke-width: 0.8"/>
      </g>
     </g>
     <g id="text_2">
      <!-- 1 -->
      <g transform="translate(88.871824 334.998438) scale(0.1 -0.1)">
       <defs>
        <path id="DejaVuSans-31" d="M 794 531 
L 1825 531 
L 1825 4091 
L 703 3866 
L 703 4441 
L 1819 4666 
L 2450 4666 
L 2450 531 
L 3481 531 
L 3481 0 
L 794 0 
L 794 531 
z
" transform="scale(0.015625)"/>
       </defs>
       <use xlink:href="#DejaVuSans-31"/>
      </g>
     </g>
    </g>
    <g id="xtick_3">
     <g id="line2d_3">
      <g>
       <use xlink:href="#m90b4a952a4" x="132.943859" y="320.4" style="stroke: #000000; stroke-width: 0.8"/>
      </g>
     </g>
     <g id="text_3">
      <!-- 2 -->
      <g transform="translate(129.762609 334.998438) scale(0.1 -0.1)">
       <defs>
        <path id="DejaVuSans-32" d="M 1228 531 
L 3431 531 
L 3431 0 
L 469 0 
L 469 531 
Q 828 903 1448 1529 
Q 2069 2156 2228 2338 
Q 2531 2678 2651 2914 
Q 2772 3150 2772 3378 
Q 2772 3750 2511 3984 
Q 2250 4219 1831 4219 
Q 1534 4219 1204 4116 
Q 875 4013 500 3803 
L 500 4441 
Q 881 4594 1212 4672 
Q 1544 4750 1819 4750 
Q 2544 4750 2975 4387 
Q 3406 4025 3406 3419 
Q 3406 3131 3298 2873 
Q 3191 2616 2906 2266 
Q 2828 2175 2409 1742 
Q 1991 1309 1228 531 
z
" transform="scale(0.015625)"/>
       </defs>
       <use xlink:href="#DejaVuSans-32"/>
      </g>
     </g>
    </g>
    <g id="xtick_4">
     <g id="line2d_4">
      <g>
       <use xlink:href="#m90b4a952a4" x="173.834644" y="320.4" style="stroke: #000000; stroke-width: 0.8"/>
      </g>
     </g>
     <g id="text_4">
      <!-- 3 -->
      <g transform="translate(170.653394 334.998438) scale(0.1 -0.1)">
       <defs>
        <path id="DejaVuSans-33" d="M 2597 2516 
Q 3050 2419 3304 2112 
Q 3559 1806 3559 1356 
Q 3559 666 3084 287 
Q 2609 -91 1734 -91 
Q 1441 -91 1130 -33 
Q 819 25 488 141 
L 488 750 
Q 750 597 1062 519 
Q 1375 441 1716 441 
Q 2309 441 2620 675 
Q 2931 909 2931 1356 
Q 2931 1769 2642 2001 
Q 2353 2234 1838 2234 
L 1294 2234 
L 1294 2753 
L 1863 2753 
Q 2328 2753 2575 2939 
Q 2822 3125 2822 3475 
Q 2822 3834 2567 4026 
Q 2313 4219 1838 4219 
Q 1578 4219 1281 4162 
Q 984 4106 628 3988 
L 628 4550 
Q 988 4650 1302 4700 
Q 1616 4750 1894 4750 
Q 2613 4750 3031 4423 
Q 3450 4097 3450 3541 
Q 3450 3153 3228 2886 
Q 3006 2619 2597 2516 
z
" transform="scale(0.015625)"/>
       </defs>
       <use xlink:href="#DejaVuSans-33"/>
      </g>
     </g>
    </g>
    <g id="xtick_5">
     <g id="line2d_5">
      <g>
       <use xlink:href="#m90b4a952a4" x="214.725429" y="320.4" style="stroke: #000000; stroke-width: 0.8"/>
      </g>
     </g>
     <g id="text_5">
      <!-- 4 -->
      <g transform="translate(211.544179 334.998438) scale(0.1 -0.1)">
       <defs>
        <path id="DejaVuSans-34" d="M 2419 4116 
L 825 1625 
L 2419 1625 
L 2419 4116 
z
M 2253 4666 
L 3047 4666 
L 3047 1625 
L 3713 1625 
L 3713 1100 
L 3047 1100 
L 3047 0 
L 2419 0 
L 2419 1100 
L 313 1100 
L 313 1709 
L 2253 4666 
z
" transform="scale(0.015625)"/>
       </defs>
       <use xlink:href="#DejaVuSans-34"/>
      </g>
     </g>
    </g>
    <g id="xtick_6">
     <g id="line2d_6">
      <g>
       <use xlink:href="#m90b4a952a4" x="255.616215" y="320.4" style="stroke: #000000; stroke-width: 0.8"/>
      </g>
     </g>
     <g id="text_6">
      <!-- 5 -->
      <g transform="translate(252.434965 334.998438) scale(0.1 -0.1)">
       <defs>
        <path id="DejaVuSans-35" d="M 691 4666 
L 3169 4666 
L 3169 4134 
L 1269 4134 
L 1269 2991 
Q 1406 3038 1543 3061 
Q 1681 3084 1819 3084 
Q 2600 3084 3056 2656 
Q 3513 2228 3513 1497 
Q 3513 744 3044 326 
Q 2575 -91 1722 -91 
Q 1428 -91 1123 -41 
Q 819 9 494 109 
L 494 744 
Q 775 591 1075 516 
Q 1375 441 1709 441 
Q 2250 441 2565 725 
Q 2881 1009 2881 1497 
Q 2881 1984 2565 2268 
Q 2250 2553 1709 2553 
Q 1456 2553 1204 2497 
Q 953 2441 691 2322 
L 691 4666 
z
" transform="scale(0.015625)"/>
       </defs>
       <use xlink:href="#DejaVuSans-35"/>
      </g>
     </g>
    </g>
    <g id="xtick_7">
     <g id="line2d_7">
      <g>
       <use xlink:href="#m90b4a952a4" x="296.507" y="320.4" style="stroke: #000000; stroke-width: 0.8"/>
      </g>
     </g>
     <g id="text_7">
      <!-- 6 -->
      <g transform="translate(293.32575 334.998438) scale(0.1 -0.1)">
       <defs>
        <path id="DejaVuSans-36" d="M 2113 2584 
Q 1688 2584 1439 2293 
Q 1191 2003 1191 1497 
Q 1191 994 1439 701 
Q 1688 409 2113 409 
Q 2538 409 2786 701 
Q 3034 994 3034 1497 
Q 3034 2003 2786 2293 
Q 2538 2584 2113 2584 
z
M 3366 4563 
L 3366 3988 
Q 3128 4100 2886 4159 
Q 2644 4219 2406 4219 
Q 1781 4219 1451 3797 
Q 1122 3375 1075 2522 
Q 1259 2794 1537 2939 
Q 1816 3084 2150 3084 
Q 2853 3084 3261 2657 
Q 3669 2231 3669 1497 
Q 3669 778 3244 343 
Q 2819 -91 2113 -91 
Q 1303 -91 875 529 
Q 447 1150 447 2328 
Q 447 3434 972 4092 
Q 1497 4750 2381 4750 
Q 2619 4750 2861 4703 
Q 3103 4656 3366 4563 
z
" transform="scale(0.015625)"/>
       </defs>
       <use xlink:href="#DejaVuSans-36"/>
      </g>
     </g>
    </g>
   </g>
   <g id="matplotlib.axis_2">
    <g id="ytick_1">
     <g id="line2d_8">
      <defs>
       <path id="m03ac33a3dc" d="M 0 0 
L -3.5 0 
" style="stroke: #000000; stroke-width: 0.8"/>
      </defs>
      <g>
       <use xlink:href="#m03ac33a3dc" x="45" y="314.277468" style="stroke: #000000; stroke-width: 0.8"/>
      </g>
     </g>
     <g id="text_8">
      <!-- 0 -->
      <g transform="translate(31.6375 318.076687) scale(0.1 -0.1)">
       <use xlink:href="#DejaVuSans-30"/>
      </g>
     </g>
    </g>
    <g id="ytick_2">
     <g id="line2d_9">
      <g>
       <use xlink:href="#m03ac33a3dc" x="45" y="273.650494" style="stroke: #000000; stroke-width: 0.8"/>
      </g>
     </g>
     <g id="text_9">
      <!-- 1 -->
      <g transform="translate(31.6375 277.449713) scale(0.1 -0.1)">
       <use xlink:href="#DejaVuSans-31"/>
      </g>
     </g>
    </g>
    <g id="ytick_3">
     <g id="line2d_10">
      <g>
       <use xlink:href="#m03ac33a3dc" x="45" y="233.023521" style="stroke: #000000; stroke-width: 0.8"/>
      </g>
     </g>
     <g id="text_10">
      <!-- 2 -->
      <g transform="translate(31.6375 236.822739) scale(0.1 -0.1)">
       <use xlink:href="#DejaVuSans-32"/>
      </g>
     </g>
    </g>
    <g id="ytick_4">
     <g id="line2d_11">
      <g>
       <use xlink:href="#m03ac33a3dc" x="45" y="192.396547" style="stroke: #000000; stroke-width: 0.8"/>
      </g>
     </g>
     <g id="text_11">
      <!-- 3 -->
      <g transform="translate(31.6375 196.195766) scale(0.1 -0.1)">
       <use xlink:href="#DejaVuSans-33"/>
      </g>
     </g>
    </g>
    <g id="ytick_5">
     <g id="line2d_12">
      <g>
       <use xlink:href="#m03ac33a3dc" x="45" y="151.769573" style="stroke: #000000; stroke-width: 0.8"/>
      </g>
     </g>
     <g id="text_12">
      <!-- 4 -->
      <g transform="translate(31.6375 155.568792) scale(0.1 -0.1)">
       <use xlink:href="#DejaVuSans-34"/>
      </g>
     </g>
    </g>
    <g id="ytick_6">
     <g id="line2d_13">
      <g>
       <use xlink:href="#m03ac33a3dc" x="45" y="111.1426" style="stroke: #000000; stroke-width: 0.8"/>
      </g>
     </g>
     <g id="text_13">
      <!-- 5 -->
      <g transform="translate(31.6375 114.941818) scale(0.1 -0.1)">
       <use xlink:href="#DejaVuSans-35"/>
      </g>
     </g>
    </g>
    <g id="ytick_7">
     <g id="line2d_14">
      <g>
       <use xlink:href="#m03ac33a3dc" x="45" y="70.515626" style="stroke: #000000; stroke-width: 0.8"/>
      </g>
     </g>
     <g id="text_14">
      <!-- 6 -->
      <g transform="translate(31.6375 74.314845) scale(0.1 -0.1)">
       <use xlink:href="#DejaVuSans-36"/>
      </g>
     </g>
    </g>
   </g>
   <g id="line2d_15">
    <path d="M 57.681818 307.8 
L 311.318182 55.8 
" clip-path="url(#pca38509e88)" style="fill: none; stroke-dasharray: 5.55,2.4; stroke-dashoffset: 0; stroke: #333333; stroke-width: 1.5"/>
   </g>
   <g id="LineCollection_1">
    <path d="M 213.498073 152.976318 
L 213.504461 152.982665 
" clip-path="url(#pca38509e88)" style="fill: none; stroke: #800080; stroke-opacity: 0.25; stroke-width: 1.5"/>
    <path d="M 214.81433 151.374717 
L 214.96859 151.527982 
" clip-path="url(#pca38509e88)" style="fill: none; stroke: #800080; stroke-opacity: 0.25; stroke-width: 1.5"/>
    <path d="M 77.676593 109.311481 
L 94.57534 70.581446 
" clip-path="url(#pca38509e88)" style="fill: none; stroke: #800080; stroke-opacity: 0.25; stroke-width: 1.5"/>
    <path d="M 78.61313 107.456001 
L 94.581191 68.272246 
" clip-path="url(#pca38509e88)" style="fill: none; stroke: #800080; stroke-opacity: 0.25; stroke-width: 1.5"/>
    <path d="M 78.713643 106.420484 
L 94.92732 67.254545 
" clip-path="url(#pca38509e88)" style="fill: none; stroke: #800080; stroke-opacity: 0.25; stroke-width: 1.5"/>
    <path d="M 78.032022 106.325706 
L 95.370874 68.701251 
" clip-path="url(#pca38509e88)" style="fill: none; stroke: #800080; stroke-opacity: 0.25; stroke-width: 1.5"/>
    <path d="M 296.661953 70.361673 
L 296.559234 70.259616 
" clip-path="url(#pca38509e88)" style="fill: none; stroke: #800080; stroke-opacity: 0.25; stroke-width: 1.5"/>
    <path d="M 69.044302 296.510823 
L 68.87786 296.345455 
" clip-path="url(#pca38509e88)" style="fill: none; stroke: #800080; stroke-opacity: 0.25; stroke-width: 1.5"/>
    <path d="M 288.272583 78.696917 
L 288.037626 78.463476 
" clip-path="url(#pca38509e88)" style="fill: none; stroke: #800080; stroke-opacity: 0.25; stroke-width: 1.5"/>
    <path d="M 69.737843 295.821756 
L 69.448995 295.534772 
" clip-path="url(#pca38509e88)" style="fill: none; stroke: #800080; stroke-opacity: 0.25; stroke-width: 1.5"/>
    <path d="M 295.082093 71.93134 
L 294.504768 71.35774 
" clip-path="url(#pca38509e88)" style="fill: none; stroke: #800080; stroke-opacity: 0.25; stroke-width: 1.5"/>
    <path d="M 297.636387 69.393525 
L 296.701448 68.464618 
" clip-path="url(#pca38509e88)" style="fill: none; stroke: #800080; stroke-opacity: 0.25; stroke-width: 1.5"/>
    <path d="M 72.077211 293.497481 
L 69.275303 290.71365 
" clip-path="url(#pca38509e88)" style="fill: none; stroke: #800080; stroke-opacity: 0.25; stroke-width: 1.5"/>
    <path d="M 51.162289 314.277468 
L 51.162289 314.277468 
" clip-path="url(#pca38509e88)" style="fill: none; stroke: #800080; stroke-opacity: 0.25; stroke-width: 1.5"/>
   </g>
   <g id="patch_3">
    <path d="M 45 320.4 
L 45 43.2 
" style="fill: none; stroke: #000000; stroke-width: 0.8; stroke-linejoin: miter; stroke-linecap: square"/>
   </g>
   <g id="patch_4">
    <path d="M 324 320.4 
L 324 43.2 
" style="fill: none; stroke: #000000; stroke-width: 0.8; stroke-linejoin: miter; stroke-linecap: square"/>
   </g>
   <g id="patch_5">
    <path d="M 45 320.4 
L 324 320.4 
" style="fill: none; stroke: #000000; stroke-width: 0.8; stroke-linejoin: miter; stroke-linecap: square"/>
   </g>
   <g id="patch_6">
    <path d="M 45 43.2 
L 324 43.2 
" style="fill: none; stroke: #000000; stroke-width: 0.8; stroke-linejoin: miter; stroke-linecap: square"/>
   </g>
  </g>
 </g>
 <defs>
  <clipPath id="pca38509e88">
   <rect x="45" y="43.2" width="279" height="277.2"/>
  </clipPath>
 </defs>
</svg>
