<?xml version="1.0" encoding="utf-8" standalone="no"?>
<!DOCTYPE svg PUBLIC "-//W3C//DTD SVG 1.1//EN"
  "http://www.w3.org/Graphics/SVG/1.1/DTD/svg11.dtd">
<svg xmlns:xlink="http://www.w3.org/1999/xlink" width="108pt" height="108pt" viewBox="0 0 108 108" xmlns="http://www.w3.org/2000/svg" version="1.1">
 <metadata>
  <rdf:RDF xmlns:dc="http://purl.org/dc/elements/1.1/" xmlns:cc="http://creativecommons.org/ns#" xmlns:rdf="http://www.w3.org/1999/02/22-rdf-syntax-ns#">
   <cc:Work>
    <dc:type rdf:resource="http://purl.org/dc/dcmitype/StillImage"/>
    <dc:date>2024-10-29T15:05:05.524200</dc:date>
    <dc:format>image/svg+xml</dc:format>
    <dc:creator>
     <cc:Agent>
      <dc:title>Matplotlib v3.9.2, https://matplotlib.org/</dc:title>
     </cc:Agent>
    </dc:creator>
   </cc:Work>
  </rdf:RDF>
 </metadata>
 <defs>
  <style type="text/css">*{stroke-linejoin: round; stroke-linecap: butt}</style>
 </defs>
 <g id="figure_1">
  <g id="patch_1">
   <path d="M 0 108 
L 108 108 
L 108 0 
L 0 0 
z
" style="fill: #ffffff"/>
  </g>
  <g id="axes_1">
   <g id="patch_2">
    <path d="M 13.5 96.12 
L 97.2 96.12 
L 97.2 12.96 
L 13.5 12.96 
z
" style="fill: #ffffff"/>
   </g>
   <g id="PathCollection_1">
    <defs>
     <path id="C0_0_c0251dff42" d="M 0 3.535534 
C 0.937635 3.535534 1.836992 3.163008 2.5 2.5 
C 3.163008 1.836992 3.535534 0.937635 3.535534 -0 
C 3.535534 -0.937635 3.163008 -1.836992 2.5 -2.5 
C 1.836992 -3.163008 0.937635 -3.535534 0 -3.535534 
C -0.937635 -3.535534 -1.836992 -3.163008 -2.5 -2.5 
C -3.163008 -1.836992 -3.535534 -0.937635 -3.535534 0 
C -3.535534 0.937635 -3.163008 1.836992 -2.5 2.5 
C -1.836992 3.163008 -0.937635 3.535534 0 3.535534 
z
"/>
    </defs>
    <g clip-path="url(#pa56b96364b)">
     <use xlink:href="#C0_0_c0251dff42" x="29.937655" y="33.441808" style="fill: #67000d; stroke: #000000"/>
    </g>
    <g clip-path="url(#pa56b96364b)">
     <use xlink:href="#C0_0_c0251dff42" x="29.394939" y="35.465888" style="fill: #9d0d14; stroke: #000000"/>
    </g>
    <g clip-path="url(#pa56b96364b)">
     <use xlink:href="#C0_0_c0251dff42" x="31.987139" y="33.270727" style="fill: #c2161b; stroke: #000000"/>
    </g>
    <g clip-path="url(#pa56b96364b)">
     <use xlink:href="#C0_0_c0251dff42" x="31.220851" y="40.026018" style="fill: #e32f27; stroke: #000000"/>
    </g>
    <g clip-path="url(#pa56b96364b)">
     <use xlink:href="#C0_0_c0251dff42" x="21.81452" y="83.705149" style="fill: #f6553c; stroke: #000000"/>
    </g>
    <g clip-path="url(#pa56b96364b)">
     <use xlink:href="#C0_0_c0251dff42" x="26.074933" y="80.219634" style="fill: #fb7c5c; stroke: #000000"/>
    </g>
    <g clip-path="url(#pa56b96364b)">
     <use xlink:href="#C0_0_c0251dff42" x="18.187469" y="88.903636" style="fill: #fca082; stroke: #000000"/>
    </g>
    <g clip-path="url(#pa56b96364b)">
     <use xlink:href="#C0_0_c0251dff42" x="28.098336" y="80.208898" style="fill: #fcc4ad; stroke: #000000"/>
    </g>
    <g clip-path="url(#pa56b96364b)">
     <use xlink:href="#C0_0_c0251dff42" x="20.561221" y="87.99067" style="fill: #fee3d6; stroke: #000000"/>
    </g>
    <g clip-path="url(#pa56b96364b)">
     <use xlink:href="#C0_0_c0251dff42" x="22.05968" y="86.662737" style="fill: #fff5f0; stroke: #000000"/>
    </g>
   </g>
   <g id="PathCollection_2">
    <defs>
     <path id="C1_0_91f539dc6b" d="M 0 3.535534 
C 0.937635 3.535534 1.836992 3.163008 2.5 2.5 
C 3.163008 1.836992 3.535534 0.937635 3.535534 -0 
C 3.535534 -0.937635 3.163008 -1.836992 2.5 -2.5 
C 1.836992 -3.163008 0.937635 -3.535534 0 -3.535534 
C -0.937635 -3.535534 -1.836992 -3.163008 -2.5 -2.5 
C -3.163008 -1.836992 -3.535534 -0.937635 -3.535534 0 
C -3.535534 0.937635 -3.163008 1.836992 -2.5 2.5 
C -1.836992 3.163008 -0.937635 3.535534 0 3.535534 
z
"/>
    </defs>
    <g clip-path="url(#pa56b96364b)">
     <use xlink:href="#C1_0_91f539dc6b" x="51.904324" y="21.063197" style="fill: #08306b; stroke: #000000"/>
    </g>
    <g clip-path="url(#pa56b96364b)">
     <use xlink:href="#C1_0_91f539dc6b" x="48.14113" y="25.120394" style="fill: #084d96; stroke: #000000"/>
    </g>
    <g clip-path="url(#pa56b96364b)">
     <use xlink:href="#C1_0_91f539dc6b" x="55.487734" y="20.176364" style="fill: #1b69af; stroke: #000000"/>
    </g>
    <g clip-path="url(#pa56b96364b)">
     <use xlink:href="#C1_0_91f539dc6b" x="64.155562" y="22.204428" style="fill: #3787c0; stroke: #000000"/>
    </g>
    <g clip-path="url(#pa56b96364b)">
     <use xlink:href="#C1_0_91f539dc6b" x="29.432999" y="70.557005" style="fill: #58a1cf; stroke: #000000"/>
    </g>
    <g clip-path="url(#pa56b96364b)">
     <use xlink:href="#C1_0_91f539dc6b" x="23.022491" y="79.711265" style="fill: #82bbdb; stroke: #000000"/>
    </g>
    <g clip-path="url(#pa56b96364b)">
     <use xlink:href="#C1_0_91f539dc6b" x="35.935848" y="67.029826" style="fill: #abd0e6; stroke: #000000"/>
    </g>
    <g clip-path="url(#pa56b96364b)">
     <use xlink:href="#C1_0_91f539dc6b" x="35.681115" y="68.308337" style="fill: #ccdff1; stroke: #000000"/>
    </g>
    <g clip-path="url(#pa56b96364b)">
     <use xlink:href="#C1_0_91f539dc6b" x="78.617343" y="26.167427" style="fill: #e1edf8; stroke: #000000"/>
    </g>
    <g clip-path="url(#pa56b96364b)">
     <use xlink:href="#C1_0_91f539dc6b" x="41.626828" y="62.932416" style="fill: #f7fbff; stroke: #000000"/>
    </g>
   </g>
   <g id="matplotlib.axis_1">
    <g id="xtick_1">
     <g id="line2d_1">
      <defs>
       <path id="m50d64d5f17" d="M 0 0 
L 0 3.5 
" style="stroke: #000000; stroke-width: 0.8"/>
      </defs>
      <g>
       <use xlink:href="#m50d64d5f17" x="46.72356" y="96.12" style="stroke: #000000; stroke-width: 0.8"/>
      </g>
     </g>
     <g id="text_1">
      <!-- 2.5 -->
      <g transform="translate(38.771998 110.718438) scale(0.1 -0.1)">
       <defs>
        <path id="DejaVuSans-32" d="M 1228 531 
L 3431 531 
L 3431 0 
L 469 0 
L 469 531 
Q 828 903 1448 1529 
Q 2069 2156 2228 2338 
Q 2531 2678 2651 2914 
Q 2772 3150 2772 3378 
Q 2772 3750 2511 3984 
Q 2250 4219 1831 4219 
Q 1534 4219 1204 4116 
Q 875 4013 500 3803 
L 500 4441 
Q 881 4594 1212 4672 
Q 1544 4750 1819 4750 
Q 2544 4750 2975 4387 
Q 3406 4025 3406 3419 
Q 3406 3131 3298 2873 
Q 3191 2616 2906 2266 
Q 2828 2175 2409 1742 
Q 1991 1309 1228 531 
z
" transform="scale(0.015625)"/>
        <path id="DejaVuSans-2e" d="M 684 794 
L 1344 794 
L 1344 0 
L 684 0 
L 684 794 
z
" transform="scale(0.015625)"/>
        <path id="DejaVuSans-35" d="M 691 4666 
L 3169 4666 
L 3169 4134 
L 1269 4134 
L 1269 2991 
Q 1406 3038 1543 3061 
Q 1681 3084 1819 3084 
Q 2600 3084 3056 2656 
Q 3513 2228 3513 1497 
Q 3513 744 3044 326 
Q 2575 -91 1722 -91 
Q 1428 -91 1123 -41 
Q 819 9 494 109 
L 494 744 
Q 775 591 1075 516 
Q 1375 441 1709 441 
Q 2250 441 2565 725 
Q 2881 1009 2881 1497 
Q 2881 1984 2565 2268 
Q 2250 2553 1709 2553 
Q 1456 2553 1204 2497 
Q 953 2441 691 2322 
L 691 4666 
z
" transform="scale(0.015625)"/>
       </defs>
       <use xlink:href="#DejaVuSans-32"/>
       <use xlink:href="#DejaVuSans-2e" x="63.623047"/>
       <use xlink:href="#DejaVuSans-35" x="95.410156"/>
      </g>
     </g>
    </g>
    <g id="xtick_2">
     <g id="line2d_2">
      <g>
       <use xlink:href="#m50d64d5f17" x="84.681897" y="96.12" style="stroke: #000000; stroke-width: 0.8"/>
      </g>
     </g>
     <g id="text_2">
      <!-- 5.0 -->
      <g transform="translate(76.730334 110.718438) scale(0.1 -0.1)">
       <defs>
        <path id="DejaVuSans-30" d="M 2034 4250 
Q 1547 4250 1301 3770 
Q 1056 3291 1056 2328 
Q 1056 1369 1301 889 
Q 1547 409 2034 409 
Q 2525 409 2770 889 
Q 3016 1369 3016 2328 
Q 3016 3291 2770 3770 
Q 2525 4250 2034 4250 
z
M 2034 4750 
Q 2819 4750 3233 4129 
Q 3647 3509 3647 2328 
Q 3647 1150 3233 529 
Q 2819 -91 2034 -91 
Q 1250 -91 836 529 
Q 422 1150 422 2328 
Q 422 3509 836 4129 
Q 1250 4750 2034 4750 
z
" transform="scale(0.015625)"/>
       </defs>
       <use xlink:href="#DejaVuSans-35"/>
       <use xlink:href="#DejaVuSans-2e" x="63.623047"/>
       <use xlink:href="#DejaVuSans-30" x="95.410156"/>
      </g>
     </g>
    </g>
    <g id="text_3">
     <!-- $b$ -->
     <g transform="translate(52.15 124.396563) scale(0.1 -0.1)">
      <defs>
       <path id="DejaVuSans-Oblique-62" d="M 3169 2138 
Q 3169 2591 2961 2847 
Q 2753 3103 2388 3103 
Q 2122 3103 1889 2973 
Q 1656 2844 1484 2597 
Q 1303 2338 1198 1995 
Q 1094 1653 1094 1313 
Q 1094 881 1298 636 
Q 1503 391 1863 391 
Q 2134 391 2365 517 
Q 2597 644 2772 891 
Q 2950 1147 3059 1487 
Q 3169 1828 3169 2138 
z
M 1381 2969 
Q 1594 3256 1914 3420 
Q 2234 3584 2584 3584 
Q 3122 3584 3439 3221 
Q 3756 2859 3756 2241 
Q 3756 1734 3570 1259 
Q 3384 784 3041 416 
Q 2816 172 2522 40 
Q 2228 -91 1906 -91 
Q 1566 -91 1316 65 
Q 1066 222 909 531 
L 806 0 
L 231 0 
L 1178 4863 
L 1753 4863 
L 1381 2969 
z
" transform="scale(0.015625)"/>
      </defs>
      <use xlink:href="#DejaVuSans-Oblique-62" transform="translate(0 0.015625)"/>
     </g>
    </g>
   </g>
   <g id="matplotlib.axis_2">
    <g id="ytick_1">
     <g id="line2d_3">
      <defs>
       <path id="m96282d4d88" d="M 0 0 
L -3.5 0 
" style="stroke: #000000; stroke-width: 0.8"/>
      </defs>
      <g>
       <use xlink:href="#m96282d4d88" x="13.5" y="70.653474" style="stroke: #000000; stroke-width: 0.8"/>
      </g>
     </g>
     <g id="text_4">
      <!-- 2 -->
      <g transform="translate(0.1375 74.452693) scale(0.1 -0.1)">
       <use xlink:href="#DejaVuSans-32"/>
      </g>
     </g>
    </g>
    <g id="ytick_2">
     <g id="line2d_4">
      <g>
       <use xlink:href="#m96282d4d88" x="13.5" y="40.482719" style="stroke: #000000; stroke-width: 0.8"/>
      </g>
     </g>
     <g id="text_5">
      <!-- 4 -->
      <g transform="translate(0.1375 44.281938) scale(0.1 -0.1)">
       <defs>
        <path id="DejaVuSans-34" d="M 2419 4116 
L 825 1625 
L 2419 1625 
L 2419 4116 
z
M 2253 4666 
L 3047 4666 
L 3047 1625 
L 3713 1625 
L 3713 1100 
L 3047 1100 
L 3047 0 
L 2419 0 
L 2419 1100 
L 313 1100 
L 313 1709 
L 2253 4666 
z
" transform="scale(0.015625)"/>
       </defs>
       <use xlink:href="#DejaVuSans-34"/>
      </g>
     </g>
    </g>
    <g id="text_6">
     <!-- $d$ -->
     <g transform="translate(-5.942188 57.74) rotate(-90) scale(0.1 -0.1)">
      <defs>
       <path id="DejaVuSans-Oblique-64" d="M 2675 525 
Q 2444 222 2128 65 
Q 1813 -91 1428 -91 
Q 903 -91 598 267 
Q 294 625 294 1247 
Q 294 1766 478 2236 
Q 663 2706 1013 3078 
Q 1244 3325 1534 3454 
Q 1825 3584 2144 3584 
Q 2481 3584 2739 3421 
Q 2997 3259 3138 2956 
L 3513 4863 
L 4091 4863 
L 3144 0 
L 2566 0 
L 2675 525 
z
M 891 1350 
Q 891 897 1095 644 
Q 1300 391 1663 391 
Q 1931 391 2161 520 
Q 2391 650 2566 903 
Q 2750 1166 2856 1509 
Q 2963 1853 2963 2188 
Q 2963 2622 2758 2865 
Q 2553 3109 2194 3109 
Q 1922 3109 1687 2981 
Q 1453 2853 1288 2613 
Q 1106 2353 998 2009 
Q 891 1666 891 1350 
z
" transform="scale(0.015625)"/>
      </defs>
      <use xlink:href="#DejaVuSans-Oblique-64" transform="translate(0 0.015625)"/>
     </g>
    </g>
   </g>
   <g id="line2d_5">
    <path d="M 17.304545 92.34 
L 93.395455 16.74 
" clip-path="url(#pa56b96364b)" style="fill: none; stroke-dasharray: 5.55,2.4; stroke-dashoffset: 0; stroke: #333333; stroke-width: 1.5"/>
   </g>
   <g id="LineCollection_1">
    <path d="M 29.937655 33.441808 
L 48.14113 25.120394 
" clip-path="url(#pa56b96364b)" style="fill: none; stroke: #800080; stroke-opacity: 0.5; stroke-width: 1.5"/>
    <path d="M 29.394939 35.465888 
L 51.904324 21.063197 
" clip-path="url(#pa56b96364b)" style="fill: none; stroke: #800080; stroke-opacity: 0.5; stroke-width: 1.5"/>
    <path d="M 31.987139 33.270727 
L 55.487734 20.176364 
" clip-path="url(#pa56b96364b)" style="fill: none; stroke: #800080; stroke-opacity: 0.5; stroke-width: 1.5"/>
    <path d="M 31.220851 40.026018 
L 64.155562 22.204428 
" clip-path="url(#pa56b96364b)" style="fill: none; stroke: #800080; stroke-opacity: 0.5; stroke-width: 1.5"/>
    <path d="M 21.81452 83.705149 
L 23.904994 85.782135 
" clip-path="url(#pa56b96364b)" style="fill: none; stroke: #800080; stroke-opacity: 0.5; stroke-width: 1.5"/>
    <path d="M 26.074933 80.219634 
L 23.022491 79.711265 
" clip-path="url(#pa56b96364b)" style="fill: none; stroke: #800080; stroke-opacity: 0.5; stroke-width: 1.5"/>
    <path d="M 18.187469 88.903636 
L 19.475346 90.183204 
" clip-path="url(#pa56b96364b)" style="fill: none; stroke: #800080; stroke-opacity: 0.5; stroke-width: 1.5"/>
    <path d="M 28.098336 80.208898 
L 29.432999 70.557005 
" clip-path="url(#pa56b96364b)" style="fill: none; stroke: #800080; stroke-opacity: 0.5; stroke-width: 1.5"/>
    <path d="M 28.098336 80.208898 
L 28.806378 80.912373 
" clip-path="url(#pa56b96364b)" style="fill: none; stroke: #800080; stroke-opacity: 0.5; stroke-width: 1.5"/>
    <path d="M 20.561221 87.99067 
L 21.121669 88.547503 
" clip-path="url(#pa56b96364b)" style="fill: none; stroke: #800080; stroke-opacity: 0.5; stroke-width: 1.5"/>
    <path d="M 22.05968 86.662737 
L 22.539177 87.13914 
" clip-path="url(#pa56b96364b)" style="fill: none; stroke: #800080; stroke-opacity: 0.5; stroke-width: 1.5"/>
    <path d="M 34.330994 75.4234 
L 29.432999 70.557005 
" clip-path="url(#pa56b96364b)" style="fill: none; stroke: #800080; stroke-opacity: 0.5; stroke-width: 1.5"/>
    <path d="M 39.35746 70.429363 
L 35.935848 67.029826 
" clip-path="url(#pa56b96364b)" style="fill: none; stroke: #800080; stroke-opacity: 0.5; stroke-width: 1.5"/>
    <path d="M 38.586687 71.195163 
L 35.681115 68.308337 
" clip-path="url(#pa56b96364b)" style="fill: none; stroke: #800080; stroke-opacity: 0.5; stroke-width: 1.5"/>
    <path d="M 81.262077 28.795098 
L 78.617343 26.167427 
" clip-path="url(#pa56b96364b)" style="fill: none; stroke: #800080; stroke-opacity: 0.5; stroke-width: 1.5"/>
    <path d="M 44.264958 65.553526 
L 41.626828 62.932416 
" clip-path="url(#pa56b96364b)" style="fill: none; stroke: #800080; stroke-opacity: 0.5; stroke-width: 1.5"/>
    <path d="M 8.765224 100.824229 
L 8.765224 100.824229 
" clip-path="url(#pa56b96364b)" style="fill: none; stroke: #800080; stroke-opacity: 0.5; stroke-width: 1.5"/>
   </g>
   <g id="patch_3">
    <path d="M 13.5 96.12 
L 13.5 12.96 
" style="fill: none; stroke: #000000; stroke-width: 0.8; stroke-linejoin: miter; stroke-linecap: square"/>
   </g>
   <g id="patch_4">
    <path d="M 97.2 96.12 
L 97.2 12.96 
" style="fill: none; stroke: #000000; stroke-width: 0.8; stroke-linejoin: miter; stroke-linecap: square"/>
   </g>
   <g id="patch_5">
    <path d="M 13.5 96.12 
L 97.2 96.12 
" style="fill: none; stroke: #000000; stroke-width: 0.8; stroke-linejoin: miter; stroke-linecap: square"/>
   </g>
   <g id="patch_6">
    <path d="M 13.5 12.96 
L 97.2 12.96 
" style="fill: none; stroke: #000000; stroke-width: 0.8; stroke-linejoin: miter; stroke-linecap: square"/>
   </g>
  </g>
 </g>
 <defs>
  <clipPath id="pa56b96364b">
   <rect x="13.5" y="12.96" width="83.7" height="83.16"/>
  </clipPath>
 </defs>
</svg>
