<?xml version="1.0" encoding="utf-8" standalone="no"?>
<!DOCTYPE svg PUBLIC "-//W3C//DTD SVG 1.1//EN"
  "http://www.w3.org/Graphics/SVG/1.1/DTD/svg11.dtd">
<svg xmlns:xlink="http://www.w3.org/1999/xlink" width="216pt" height="216pt" viewBox="0 0 216 216" xmlns="http://www.w3.org/2000/svg" version="1.1">
 <metadata>
  <rdf:RDF xmlns:dc="http://purl.org/dc/elements/1.1/" xmlns:cc="http://creativecommons.org/ns#" xmlns:rdf="http://www.w3.org/1999/02/22-rdf-syntax-ns#">
   <cc:Work>
    <dc:type rdf:resource="http://purl.org/dc/dcmitype/StillImage"/>
    <dc:date>2024-10-29T16:06:54.829665</dc:date>
    <dc:format>image/svg+xml</dc:format>
    <dc:creator>
     <cc:Agent>
      <dc:title>Matplotlib v3.9.2, https://matplotlib.org/</dc:title>
     </cc:Agent>
    </dc:creator>
   </cc:Work>
  </rdf:RDF>
 </metadata>
 <defs>
  <style type="text/css">*{stroke-linejoin: round; stroke-linecap: butt}</style>
 </defs>
 <g id="figure_1">
  <g id="patch_1">
   <path d="M 0 216 
L 216 216 
L 216 0 
L 0 0 
z
" style="fill: #ffffff"/>
  </g>
  <g id="axes_1">
   <g id="patch_2">
    <path d="M 27 192.24 
L 194.4 192.24 
L 194.4 25.92 
L 27 25.92 
z
" style="fill: #ffffff"/>
   </g>
   <g id="PathCollection_1">
    <defs>
     <path id="C0_0_1dbfcc1ca0" d="M 0 3.535534 
C 0.937635 3.535534 1.836992 3.163008 2.5 2.5 
C 3.163008 1.836992 3.535534 0.937635 3.535534 -0 
C 3.535534 -0.937635 3.163008 -1.836992 2.5 -2.5 
C 1.836992 -3.163008 0.937635 -3.535534 0 -3.535534 
C -0.937635 -3.535534 -1.836992 -3.163008 -2.5 -2.5 
C -3.163008 -1.836992 -3.535534 -0.937635 -3.535534 0 
C -3.535534 0.937635 -3.163008 1.836992 -2.5 2.5 
C -1.836992 3.163008 -0.937635 3.535534 0 3.535534 
z
"/>
    </defs>
    <g clip-path="url(#p41b3fe3d7b)">
     <use xlink:href="#C0_0_1dbfcc1ca0" x="57.876695" y="42.449426" style="fill: #67000d; stroke: #000000"/>
    </g>
    <g clip-path="url(#p41b3fe3d7b)">
     <use xlink:href="#C0_0_1dbfcc1ca0" x="49.473702" y="76.543108" style="fill: #9d0d14; stroke: #000000"/>
    </g>
    <g clip-path="url(#p41b3fe3d7b)">
     <use xlink:href="#C0_0_1dbfcc1ca0" x="47.178635" y="101.227985" style="fill: #c2161b; stroke: #000000"/>
    </g>
    <g clip-path="url(#p41b3fe3d7b)">
     <use xlink:href="#C0_0_1dbfcc1ca0" x="36.472389" y="175.993439" style="fill: #e32f27; stroke: #000000"/>
    </g>
    <g clip-path="url(#p41b3fe3d7b)">
     <use xlink:href="#C0_0_1dbfcc1ca0" x="37.294576" y="175.633259" style="fill: #f6553c; stroke: #000000"/>
    </g>
    <g clip-path="url(#p41b3fe3d7b)">
     <use xlink:href="#C0_0_1dbfcc1ca0" x="38.502672" y="176.616904" style="fill: #fb7c5c; stroke: #000000"/>
    </g>
    <g clip-path="url(#p41b3fe3d7b)">
     <use xlink:href="#C0_0_1dbfcc1ca0" x="47.17406" y="168.882423" style="fill: #fca082; stroke: #000000"/>
    </g>
    <g clip-path="url(#p41b3fe3d7b)">
     <use xlink:href="#C0_0_1dbfcc1ca0" x="41.502094" y="174.556531" style="fill: #fcc4ad; stroke: #000000"/>
    </g>
    <g clip-path="url(#p41b3fe3d7b)">
     <use xlink:href="#C0_0_1dbfcc1ca0" x="60.030129" y="156.537382" style="fill: #fee3d6; stroke: #000000"/>
    </g>
    <g clip-path="url(#p41b3fe3d7b)">
     <use xlink:href="#C0_0_1dbfcc1ca0" x="42.688859" y="173.844564" style="fill: #fff5f0; stroke: #000000"/>
    </g>
   </g>
   <g id="PathCollection_2">
    <defs>
     <path id="C1_0_284085c23e" d="M 0 3.535534 
C 0.937635 3.535534 1.836992 3.163008 2.5 2.5 
C 3.163008 1.836992 3.535534 0.937635 3.535534 -0 
C 3.535534 -0.937635 3.163008 -1.836992 2.5 -2.5 
C 1.836992 -3.163008 0.937635 -3.535534 0 -3.535534 
C -0.937635 -3.535534 -1.836992 -3.163008 -2.5 -2.5 
C -3.163008 -1.836992 -3.535534 -0.937635 -3.535534 0 
C -3.535534 0.937635 -3.163008 1.836992 -2.5 2.5 
C -1.836992 3.163008 -0.937635 3.535534 0 3.535534 
z
"/>
    </defs>
    <g clip-path="url(#p41b3fe3d7b)">
     <use xlink:href="#C1_0_284085c23e" x="61.156034" y="40.352727" style="fill: #08306b; stroke: #000000"/>
    </g>
    <g clip-path="url(#p41b3fe3d7b)">
     <use xlink:href="#C1_0_284085c23e" x="52.284687" y="70.940085" style="fill: #084d96; stroke: #000000"/>
    </g>
    <g clip-path="url(#p41b3fe3d7b)">
     <use xlink:href="#C1_0_284085c23e" x="44.974715" y="101.606833" style="fill: #1b69af; stroke: #000000"/>
    </g>
    <g clip-path="url(#p41b3fe3d7b)">
     <use xlink:href="#C1_0_284085c23e" x="41.174257" y="170.477509" style="fill: #3787c0; stroke: #000000"/>
    </g>
    <g clip-path="url(#p41b3fe3d7b)">
     <use xlink:href="#C1_0_284085c23e" x="36.984671" y="177.807273" style="fill: #58a1cf; stroke: #000000"/>
    </g>
    <g clip-path="url(#p41b3fe3d7b)">
     <use xlink:href="#C1_0_284085c23e" x="42.495772" y="173.495405" style="fill: #82bbdb; stroke: #000000"/>
    </g>
    <g clip-path="url(#p41b3fe3d7b)">
     <use xlink:href="#C1_0_284085c23e" x="41.397419" y="175.002942" style="fill: #abd0e6; stroke: #000000"/>
    </g>
    <g clip-path="url(#p41b3fe3d7b)">
     <use xlink:href="#C1_0_284085c23e" x="81.547541" y="135.693286" style="fill: #ccdff1; stroke: #000000"/>
    </g>
    <g clip-path="url(#p41b3fe3d7b)">
     <use xlink:href="#C1_0_284085c23e" x="39.979786" y="177.427182" style="fill: #e1edf8; stroke: #000000"/>
    </g>
    <g clip-path="url(#p41b3fe3d7b)">
     <use xlink:href="#C1_0_284085c23e" x="42.749717" y="174.796533" style="fill: #f7fbff; stroke: #000000"/>
    </g>
   </g>
   <g id="matplotlib.axis_1">
    <g id="xtick_1">
     <g id="line2d_1">
      <defs>
       <path id="m05492d9d2a" d="M 0 0 
L 0 3.5 
" style="stroke: #000000; stroke-width: 0.8"/>
      </defs>
      <g>
       <use xlink:href="#m05492d9d2a" x="64.08657" y="192.24" style="stroke: #000000; stroke-width: 0.8"/>
      </g>
     </g>
     <g id="text_1">
      <!-- 2 -->
      <g transform="translate(60.90532 206.838437) scale(0.1 -0.1)">
       <defs>
        <path id="DejaVuSans-32" d="M 1228 531 
L 3431 531 
L 3431 0 
L 469 0 
L 469 531 
Q 828 903 1448 1529 
Q 2069 2156 2228 2338 
Q 2531 2678 2651 2914 
Q 2772 3150 2772 3378 
Q 2772 3750 2511 3984 
Q 2250 4219 1831 4219 
Q 1534 4219 1204 4116 
Q 875 4013 500 3803 
L 500 4441 
Q 881 4594 1212 4672 
Q 1544 4750 1819 4750 
Q 2544 4750 2975 4387 
Q 3406 4025 3406 3419 
Q 3406 3131 3298 2873 
Q 3191 2616 2906 2266 
Q 2828 2175 2409 1742 
Q 1991 1309 1228 531 
z
" transform="scale(0.015625)"/>
       </defs>
       <use xlink:href="#DejaVuSans-32"/>
      </g>
     </g>
    </g>
    <g id="xtick_2">
     <g id="line2d_2">
      <g>
       <use xlink:href="#m05492d9d2a" x="102.063989" y="192.24" style="stroke: #000000; stroke-width: 0.8"/>
      </g>
     </g>
     <g id="text_2">
      <!-- 4 -->
      <g transform="translate(98.882739 206.838437) scale(0.1 -0.1)">
       <defs>
        <path id="DejaVuSans-34" d="M 2419 4116 
L 825 1625 
L 2419 1625 
L 2419 4116 
z
M 2253 4666 
L 3047 4666 
L 3047 1625 
L 3713 1625 
L 3713 1100 
L 3047 1100 
L 3047 0 
L 2419 0 
L 2419 1100 
L 313 1100 
L 313 1709 
L 2253 4666 
z
" transform="scale(0.015625)"/>
       </defs>
       <use xlink:href="#DejaVuSans-34"/>
      </g>
     </g>
    </g>
    <g id="xtick_3">
     <g id="line2d_3">
      <g>
       <use xlink:href="#m05492d9d2a" x="140.041408" y="192.24" style="stroke: #000000; stroke-width: 0.8"/>
      </g>
     </g>
     <g id="text_3">
      <!-- 6 -->
      <g transform="translate(136.860158 206.838437) scale(0.1 -0.1)">
       <defs>
        <path id="DejaVuSans-36" d="M 2113 2584 
Q 1688 2584 1439 2293 
Q 1191 2003 1191 1497 
Q 1191 994 1439 701 
Q 1688 409 2113 409 
Q 2538 409 2786 701 
Q 3034 994 3034 1497 
Q 3034 2003 2786 2293 
Q 2538 2584 2113 2584 
z
M 3366 4563 
L 3366 3988 
Q 3128 4100 2886 4159 
Q 2644 4219 2406 4219 
Q 1781 4219 1451 3797 
Q 1122 3375 1075 2522 
Q 1259 2794 1537 2939 
Q 1816 3084 2150 3084 
Q 2853 3084 3261 2657 
Q 3669 2231 3669 1497 
Q 3669 778 3244 343 
Q 2819 -91 2113 -91 
Q 1303 -91 875 529 
Q 447 1150 447 2328 
Q 447 3434 972 4092 
Q 1497 4750 2381 4750 
Q 2619 4750 2861 4703 
Q 3103 4656 3366 4563 
z
" transform="scale(0.015625)"/>
       </defs>
       <use xlink:href="#DejaVuSans-36"/>
      </g>
     </g>
    </g>
    <g id="xtick_4">
     <g id="line2d_4">
      <g>
       <use xlink:href="#m05492d9d2a" x="178.018827" y="192.24" style="stroke: #000000; stroke-width: 0.8"/>
      </g>
     </g>
     <g id="text_4">
      <!-- 8 -->
      <g transform="translate(174.837577 206.838437) scale(0.1 -0.1)">
       <defs>
        <path id="DejaVuSans-38" d="M 2034 2216 
Q 1584 2216 1326 1975 
Q 1069 1734 1069 1313 
Q 1069 891 1326 650 
Q 1584 409 2034 409 
Q 2484 409 2743 651 
Q 3003 894 3003 1313 
Q 3003 1734 2745 1975 
Q 2488 2216 2034 2216 
z
M 1403 2484 
Q 997 2584 770 2862 
Q 544 3141 544 3541 
Q 544 4100 942 4425 
Q 1341 4750 2034 4750 
Q 2731 4750 3128 4425 
Q 3525 4100 3525 3541 
Q 3525 3141 3298 2862 
Q 3072 2584 2669 2484 
Q 3125 2378 3379 2068 
Q 3634 1759 3634 1313 
Q 3634 634 3220 271 
Q 2806 -91 2034 -91 
Q 1263 -91 848 271 
Q 434 634 434 1313 
Q 434 1759 690 2068 
Q 947 2378 1403 2484 
z
M 1172 3481 
Q 1172 3119 1398 2916 
Q 1625 2713 2034 2713 
Q 2441 2713 2670 2916 
Q 2900 3119 2900 3481 
Q 2900 3844 2670 4047 
Q 2441 4250 2034 4250 
Q 1625 4250 1398 4047 
Q 1172 3844 1172 3481 
z
" transform="scale(0.015625)"/>
       </defs>
       <use xlink:href="#DejaVuSans-38"/>
      </g>
     </g>
    </g>
    <g id="text_5">
     <!-- $b$ -->
     <g transform="translate(107.5 220.516562) scale(0.1 -0.1)">
      <defs>
       <path id="DejaVuSans-Oblique-62" d="M 3169 2138 
Q 3169 2591 2961 2847 
Q 2753 3103 2388 3103 
Q 2122 3103 1889 2973 
Q 1656 2844 1484 2597 
Q 1303 2338 1198 1995 
Q 1094 1653 1094 1313 
Q 1094 881 1298 636 
Q 1503 391 1863 391 
Q 2134 391 2365 517 
Q 2597 644 2772 891 
Q 2950 1147 3059 1487 
Q 3169 1828 3169 2138 
z
M 1381 2969 
Q 1594 3256 1914 3420 
Q 2234 3584 2584 3584 
Q 3122 3584 3439 3221 
Q 3756 2859 3756 2241 
Q 3756 1734 3570 1259 
Q 3384 784 3041 416 
Q 2816 172 2522 40 
Q 2228 -91 1906 -91 
Q 1566 -91 1316 65 
Q 1066 222 909 531 
L 806 0 
L 231 0 
L 1178 4863 
L 1753 4863 
L 1381 2969 
z
" transform="scale(0.015625)"/>
      </defs>
      <use xlink:href="#DejaVuSans-Oblique-62" transform="translate(0 0.015625)"/>
     </g>
    </g>
   </g>
   <g id="matplotlib.axis_2">
    <g id="ytick_1">
     <g id="line2d_5">
      <defs>
       <path id="mc5879f12a9" d="M 0 0 
L -3.5 0 
" style="stroke: #000000; stroke-width: 0.8"/>
      </defs>
      <g>
       <use xlink:href="#mc5879f12a9" x="27" y="155.392698" style="stroke: #000000; stroke-width: 0.8"/>
      </g>
     </g>
     <g id="text_6">
      <!-- 2 -->
      <g transform="translate(13.6375 159.191916) scale(0.1 -0.1)">
       <use xlink:href="#DejaVuSans-32"/>
      </g>
     </g>
    </g>
    <g id="ytick_2">
     <g id="line2d_6">
      <g>
       <use xlink:href="#mc5879f12a9" x="27" y="117.660295" style="stroke: #000000; stroke-width: 0.8"/>
      </g>
     </g>
     <g id="text_7">
      <!-- 4 -->
      <g transform="translate(13.6375 121.459513) scale(0.1 -0.1)">
       <use xlink:href="#DejaVuSans-34"/>
      </g>
     </g>
    </g>
    <g id="ytick_3">
     <g id="line2d_7">
      <g>
       <use xlink:href="#mc5879f12a9" x="27" y="79.927892" style="stroke: #000000; stroke-width: 0.8"/>
      </g>
     </g>
     <g id="text_8">
      <!-- 6 -->
      <g transform="translate(13.6375 83.72711) scale(0.1 -0.1)">
       <use xlink:href="#DejaVuSans-36"/>
      </g>
     </g>
    </g>
    <g id="ytick_4">
     <g id="line2d_8">
      <g>
       <use xlink:href="#mc5879f12a9" x="27" y="42.195488" style="stroke: #000000; stroke-width: 0.8"/>
      </g>
     </g>
     <g id="text_9">
      <!-- 8 -->
      <g transform="translate(13.6375 45.994707) scale(0.1 -0.1)">
       <use xlink:href="#DejaVuSans-38"/>
      </g>
     </g>
    </g>
    <g id="text_10">
     <!-- $d$ -->
     <g transform="translate(7.557812 112.28) rotate(-90) scale(0.1 -0.1)">
      <defs>
       <path id="DejaVuSans-Oblique-64" d="M 2675 525 
Q 2444 222 2128 65 
Q 1813 -91 1428 -91 
Q 903 -91 598 267 
Q 294 625 294 1247 
Q 294 1766 478 2236 
Q 663 2706 1013 3078 
Q 1244 3325 1534 3454 
Q 1825 3584 2144 3584 
Q 2481 3584 2739 3421 
Q 2997 3259 3138 2956 
L 3513 4863 
L 4091 4863 
L 3144 0 
L 2566 0 
L 2675 525 
z
M 891 1350 
Q 891 897 1095 644 
Q 1300 391 1663 391 
Q 1931 391 2161 520 
Q 2391 650 2566 903 
Q 2750 1166 2856 1509 
Q 2963 1853 2963 2188 
Q 2963 2622 2758 2865 
Q 2553 3109 2194 3109 
Q 1922 3109 1687 2981 
Q 1453 2853 1288 2613 
Q 1106 2353 998 2009 
Q 891 1666 891 1350 
z
" transform="scale(0.015625)"/>
      </defs>
      <use xlink:href="#DejaVuSans-Oblique-64" transform="translate(0 0.015625)"/>
     </g>
    </g>
   </g>
   <g id="line2d_9">
    <path d="M 34.609091 184.68 
L 186.790909 33.48 
" clip-path="url(#p41b3fe3d7b)" style="fill: none; stroke-dasharray: 5.55,2.4; stroke-dashoffset: 0; stroke: #333333; stroke-width: 1.5"/>
   </g>
   <g id="LineCollection_1">
    <path d="M 57.876695 42.449426 
L 61.156034 40.352727 
" clip-path="url(#p41b3fe3d7b)" style="fill: none; stroke: #800080; stroke-opacity: 0.5; stroke-width: 1.5"/>
    <path d="M 49.473702 76.543108 
L 44.974715 101.606833 
" clip-path="url(#p41b3fe3d7b)" style="fill: none; stroke: #800080; stroke-opacity: 0.5; stroke-width: 1.5"/>
    <path d="M 47.178635 101.227985 
L 52.284687 70.940085 
" clip-path="url(#p41b3fe3d7b)" style="fill: none; stroke: #800080; stroke-opacity: 0.5; stroke-width: 1.5"/>
    <path d="M 36.472389 175.993439 
L 41.174257 170.477509 
" clip-path="url(#p41b3fe3d7b)" style="fill: none; stroke: #800080; stroke-opacity: 0.5; stroke-width: 1.5"/>
    <path d="M 36.472389 175.993439 
L 36.984671 177.807273 
" clip-path="url(#p41b3fe3d7b)" style="fill: none; stroke: #800080; stroke-opacity: 0.5; stroke-width: 1.5"/>
    <path d="M 36.472389 175.993439 
L 42.495772 173.495405 
" clip-path="url(#p41b3fe3d7b)" style="fill: none; stroke: #800080; stroke-opacity: 0.5; stroke-width: 1.5"/>
    <path d="M 36.472389 175.993439 
L 39.979786 177.427182 
" clip-path="url(#p41b3fe3d7b)" style="fill: none; stroke: #800080; stroke-opacity: 0.5; stroke-width: 1.5"/>
    <path d="M 36.472389 175.993439 
L 42.749717 174.796533 
" clip-path="url(#p41b3fe3d7b)" style="fill: none; stroke: #800080; stroke-opacity: 0.5; stroke-width: 1.5"/>
    <path d="M 37.294576 175.633259 
L 41.174257 170.477509 
" clip-path="url(#p41b3fe3d7b)" style="fill: none; stroke: #800080; stroke-opacity: 0.5; stroke-width: 1.5"/>
    <path d="M 37.294576 175.633259 
L 36.984671 177.807273 
" clip-path="url(#p41b3fe3d7b)" style="fill: none; stroke: #800080; stroke-opacity: 0.5; stroke-width: 1.5"/>
    <path d="M 37.294576 175.633259 
L 42.495772 173.495405 
" clip-path="url(#p41b3fe3d7b)" style="fill: none; stroke: #800080; stroke-opacity: 0.5; stroke-width: 1.5"/>
    <path d="M 37.294576 175.633259 
L 42.749717 174.796533 
" clip-path="url(#p41b3fe3d7b)" style="fill: none; stroke: #800080; stroke-opacity: 0.5; stroke-width: 1.5"/>
    <path d="M 37.294576 175.633259 
L 40.504577 178.82255 
" clip-path="url(#p41b3fe3d7b)" style="fill: none; stroke: #800080; stroke-opacity: 0.5; stroke-width: 1.5"/>
    <path d="M 38.502672 176.616904 
L 36.984671 177.807273 
" clip-path="url(#p41b3fe3d7b)" style="fill: none; stroke: #800080; stroke-opacity: 0.5; stroke-width: 1.5"/>
    <path d="M 38.502672 176.616904 
L 42.495772 173.495405 
" clip-path="url(#p41b3fe3d7b)" style="fill: none; stroke: #800080; stroke-opacity: 0.5; stroke-width: 1.5"/>
    <path d="M 38.502672 176.616904 
L 41.397419 175.002942 
" clip-path="url(#p41b3fe3d7b)" style="fill: none; stroke: #800080; stroke-opacity: 0.5; stroke-width: 1.5"/>
    <path d="M 38.502672 176.616904 
L 39.979786 177.427182 
" clip-path="url(#p41b3fe3d7b)" style="fill: none; stroke: #800080; stroke-opacity: 0.5; stroke-width: 1.5"/>
    <path d="M 38.502672 176.616904 
L 42.749717 174.796533 
" clip-path="url(#p41b3fe3d7b)" style="fill: none; stroke: #800080; stroke-opacity: 0.5; stroke-width: 1.5"/>
    <path d="M 38.502672 176.616904 
L 40.613608 178.714221 
" clip-path="url(#p41b3fe3d7b)" style="fill: none; stroke: #800080; stroke-opacity: 0.5; stroke-width: 1.5"/>
    <path d="M 47.17406 168.882423 
L 41.397419 175.002942 
" clip-path="url(#p41b3fe3d7b)" style="fill: none; stroke: #800080; stroke-opacity: 0.5; stroke-width: 1.5"/>
    <path d="M 47.17406 168.882423 
L 42.749717 174.796533 
" clip-path="url(#p41b3fe3d7b)" style="fill: none; stroke: #800080; stroke-opacity: 0.5; stroke-width: 1.5"/>
    <path d="M 47.17406 168.882423 
L 48.841655 170.539259 
" clip-path="url(#p41b3fe3d7b)" style="fill: none; stroke: #800080; stroke-opacity: 0.5; stroke-width: 1.5"/>
    <path d="M 41.502094 174.556531 
L 41.174257 170.477509 
" clip-path="url(#p41b3fe3d7b)" style="fill: none; stroke: #800080; stroke-opacity: 0.5; stroke-width: 1.5"/>
    <path d="M 41.502094 174.556531 
L 36.984671 177.807273 
" clip-path="url(#p41b3fe3d7b)" style="fill: none; stroke: #800080; stroke-opacity: 0.5; stroke-width: 1.5"/>
    <path d="M 41.502094 174.556531 
L 42.495772 173.495405 
" clip-path="url(#p41b3fe3d7b)" style="fill: none; stroke: #800080; stroke-opacity: 0.5; stroke-width: 1.5"/>
    <path d="M 41.502094 174.556531 
L 41.397419 175.002942 
" clip-path="url(#p41b3fe3d7b)" style="fill: none; stroke: #800080; stroke-opacity: 0.5; stroke-width: 1.5"/>
    <path d="M 41.502094 174.556531 
L 42.749717 174.796533 
" clip-path="url(#p41b3fe3d7b)" style="fill: none; stroke: #800080; stroke-opacity: 0.5; stroke-width: 1.5"/>
    <path d="M 41.502094 174.556531 
L 43.150196 176.193999 
" clip-path="url(#p41b3fe3d7b)" style="fill: none; stroke: #800080; stroke-opacity: 0.5; stroke-width: 1.5"/>
    <path d="M 60.030129 156.537382 
L 61.482291 157.980176 
" clip-path="url(#p41b3fe3d7b)" style="fill: none; stroke: #800080; stroke-opacity: 0.5; stroke-width: 1.5"/>
    <path d="M 42.688859 173.844564 
L 41.174257 170.477509 
" clip-path="url(#p41b3fe3d7b)" style="fill: none; stroke: #800080; stroke-opacity: 0.5; stroke-width: 1.5"/>
    <path d="M 42.688859 173.844564 
L 36.984671 177.807273 
" clip-path="url(#p41b3fe3d7b)" style="fill: none; stroke: #800080; stroke-opacity: 0.5; stroke-width: 1.5"/>
    <path d="M 42.688859 173.844564 
L 42.495772 173.495405 
" clip-path="url(#p41b3fe3d7b)" style="fill: none; stroke: #800080; stroke-opacity: 0.5; stroke-width: 1.5"/>
    <path d="M 42.688859 173.844564 
L 41.397419 175.002942 
" clip-path="url(#p41b3fe3d7b)" style="fill: none; stroke: #800080; stroke-opacity: 0.5; stroke-width: 1.5"/>
    <path d="M 42.688859 173.844564 
L 39.979786 177.427182 
" clip-path="url(#p41b3fe3d7b)" style="fill: none; stroke: #800080; stroke-opacity: 0.5; stroke-width: 1.5"/>
    <path d="M 42.688859 173.844564 
L 42.749717 174.796533 
" clip-path="url(#p41b3fe3d7b)" style="fill: none; stroke: #800080; stroke-opacity: 0.5; stroke-width: 1.5"/>
    <path d="M 42.688859 173.844564 
L 44.101873 175.248461 
" clip-path="url(#p41b3fe3d7b)" style="fill: none; stroke: #800080; stroke-opacity: 0.5; stroke-width: 1.5"/>
    <path d="M 45.039031 174.317349 
L 41.174257 170.477509 
" clip-path="url(#p41b3fe3d7b)" style="fill: none; stroke: #800080; stroke-opacity: 0.5; stroke-width: 1.5"/>
    <path d="M 39.255559 180.06351 
L 36.984671 177.807273 
" clip-path="url(#p41b3fe3d7b)" style="fill: none; stroke: #800080; stroke-opacity: 0.5; stroke-width: 1.5"/>
    <path d="M 44.181042 175.169803 
L 42.495772 173.495405 
" clip-path="url(#p41b3fe3d7b)" style="fill: none; stroke: #800080; stroke-opacity: 0.5; stroke-width: 1.5"/>
    <path d="M 42.873203 176.469205 
L 41.397419 175.002942 
" clip-path="url(#p41b3fe3d7b)" style="fill: none; stroke: #800080; stroke-opacity: 0.5; stroke-width: 1.5"/>
    <path d="M 82.73072 136.868833 
L 81.547541 135.693286 
" clip-path="url(#p41b3fe3d7b)" style="fill: none; stroke: #800080; stroke-opacity: 0.5; stroke-width: 1.5"/>
    <path d="M 40.944395 178.385568 
L 39.979786 177.427182 
" clip-path="url(#p41b3fe3d7b)" style="fill: none; stroke: #800080; stroke-opacity: 0.5; stroke-width: 1.5"/>
    <path d="M 43.653227 175.694213 
L 42.749717 174.796533 
" clip-path="url(#p41b3fe3d7b)" style="fill: none; stroke: #800080; stroke-opacity: 0.5; stroke-width: 1.5"/>
    <path d="M 26.109152 193.125101 
L 26.109152 193.125101 
" clip-path="url(#p41b3fe3d7b)" style="fill: none; stroke: #800080; stroke-opacity: 0.5; stroke-width: 1.5"/>
   </g>
   <g id="patch_3">
    <path d="M 27 192.24 
L 27 25.92 
" style="fill: none; stroke: #000000; stroke-width: 0.8; stroke-linejoin: miter; stroke-linecap: square"/>
   </g>
   <g id="patch_4">
    <path d="M 194.4 192.24 
L 194.4 25.92 
" style="fill: none; stroke: #000000; stroke-width: 0.8; stroke-linejoin: miter; stroke-linecap: square"/>
   </g>
   <g id="patch_5">
    <path d="M 27 192.24 
L 194.4 192.24 
" style="fill: none; stroke: #000000; stroke-width: 0.8; stroke-linejoin: miter; stroke-linecap: square"/>
   </g>
   <g id="patch_6">
    <path d="M 27 25.92 
L 194.4 25.92 
" style="fill: none; stroke: #000000; stroke-width: 0.8; stroke-linejoin: miter; stroke-linecap: square"/>
   </g>
  </g>
 </g>
 <defs>
  <clipPath id="p41b3fe3d7b">
   <rect x="27" y="25.92" width="167.4" height="166.32"/>
  </clipPath>
 </defs>
</svg>
